Land_normalized_Motion_pl08
version=1
nRows=10
nColumns=43
inDegrees=yes
endheader
time		pelvis_tilt		pelvis_list		pelvis_rotation		pelvis_tx		pelvis_ty		pelvis_tz		hip_flexion_r		hip_adduction_r		hip_rotation_r		knee_angle_r		ankle_angle_r		subtalar_angle_r		mtp_angle_r		hip_flexion_l		hip_adduction_l		hip_rotation_l		knee_angle_l		ankle_angle_l		subtalar_angle_l		mtp_angle_l		lumbar_extension		lumbar_bending		lumbar_rotation		neck_flexion		neck_lateral_bending		neck_rotation		arm_flex_r		arm_add_r		arm_rot_r		elbow_flex_r		pro_sup_r		wrist_flex_r		wrist_dev_r		hand_finger_flex_r		arm_flex_l		arm_add_l		arm_rot_l		elbow_flex_l		pro_sup_l		wrist_flex_l		wrist_dev_l		hand_finger_flex_l		
0.758333		0.335386		10.365525		88.731829		0.011392		0.650924		0.480574		68.339686		0.928310		1.057609		-105.806321		7.957935		-7.229086		11.888761		64.892126		-4.705304		2.137804		-105.232629		11.812087		6.567439		23.039633		-48.642041		-2.393101		3.212300		11.455214		3.369068		-4.769766		-17.301933		-28.113861		-21.433074		83.291806		105.558747		-2.790988		-24.758921		-8.622174		-12.903191		-14.778634		-12.962114		58.887933		121.163590		-35.576525		-14.871904		4.233848		
0.761540		0.466168		10.447726		89.014249		0.011471		0.642961		0.479586		69.346579		0.938307		1.084498		-107.212239		7.622849		-7.023051		14.194966		66.012599		-4.587517		2.714394		-106.645196		11.501519		7.141585		25.274003		-49.493523		-2.182299		3.109274		12.360316		3.420698		-4.823276		-15.107443		-29.057900		-20.691309		83.809700		105.376616		-3.109577		-24.503628		-8.617312		-10.938858		-15.284965		-12.379332		59.722689		120.515122		-35.993674		-15.082381		5.138317		
0.764747		0.672026		10.520114		89.337242		0.011601		0.635110		0.478575		70.275454		0.936275		0.992860		-108.564017		7.710716		-6.790148		14.278983		67.136025		-4.436880		3.388460		-108.053779		11.456702		7.723958		25.404411		-50.293931		-1.883103		3.144949		13.181121		3.483345		-5.074184		-12.968653		-29.934634		-20.183702		84.296813		105.475375		-2.976902		-24.377108		-8.563894		-8.867590		-15.826234		-11.798621		60.473010		120.713704		-35.811969		-15.155145		5.238766		
0.767955		0.901633		10.564825		89.679478		0.011765		0.627295		0.477430		71.165718		0.897554		0.855562		-109.873333		7.957634		-6.414478		14.420028		68.282698		-4.296745		4.130573		-109.449349		11.452106		8.741628		25.674355		-51.006698		-1.539514		3.095617		13.875995		3.509683		-5.166693		-10.681653		-30.875650		-19.389209		84.682089		105.457589		-2.912070		-24.162260		-8.559316		-6.900686		-16.403959		-11.188099		61.276392		120.878287		-35.803891		-15.007252		5.349686		
0.771162		1.122418		10.640611		89.987530		0.011863		0.619577		0.476074		71.976592		0.840990		0.757856		-111.163164		8.364319		-5.813937		14.671234		69.364257		-4.207057		4.868905		-110.845696		11.563272		10.314430		26.251097		-51.667731		-1.216699		2.923223		14.326007		3.581965		-5.006296		-8.166095		-31.898741		-18.192945		84.901198		105.200767		-2.987087		-23.862703		-8.624812		-5.110476		-16.989263		-10.601269		62.196735		121.028666		-36.123348		-14.500626		5.518436		
0.774369		1.321892		10.735626		90.250406		0.011862		0.612057		0.474534		72.727075		0.768152		0.652839		-112.429611		8.786331		-5.272182		14.927444		70.372625		-4.109931		5.471823		-112.213621		11.599515		11.218305		26.842837		-52.297749		-0.920459		2.819546		14.712370		3.612494		-4.893391		-5.632429		-32.978216		-16.899718		84.978478		104.865635		-3.019280		-23.832057		-8.620484		-3.247293		-17.603158		-9.967421		62.943901		121.375483		-36.288318		-14.140650		5.753006		
0.777576		1.481838		10.836114		90.441169		0.011698		0.604714		0.472893		73.428465		0.743688		0.623216		-113.641919		9.131958		-5.008846		15.085135		71.317715		-4.003969		5.933475		-113.559344		11.668301		11.627249		27.158735		-52.932947		-0.679094		2.924247		15.204539		3.578453		-4.927968		-3.355728		-34.018393		-15.973327		85.184281		104.800362		-2.910409		-23.825145		-8.553534		-1.245196		-18.197379		-9.208565		63.578036		121.722129		-36.112603		-14.133147		5.936035		
0.780783		1.567753		10.876810		90.592316		0.011461		0.597376		0.471162		74.169717		0.668110		0.682393		-114.842304		9.705118		-4.305614		15.393092		72.298291		-3.944722		6.310914		-114.868736		11.702613		12.522448		27.772469		-53.403810		-0.494265		2.783499		15.345047		3.468029		-4.820794		-0.626421		-35.123733		-14.403779		85.046022		104.622146		-2.984998		-23.853073		-8.486599		0.556495		-18.766847		-8.648154		64.239235		121.991641		-36.217208		-13.870671		6.044159		
0.783990		1.585061		10.938432		90.697349		0.011222		0.590242		0.469454		74.876660		0.608888		0.755330		-116.004740		10.088843		-4.173970		15.509399		73.177700		-3.899611		6.496703		-116.115555		11.824539		12.723255		27.934556		-53.953927		-0.420691		2.964050		15.848462		3.401204		-4.925811		1.555378		-36.171948		-13.552768		85.236509		104.790119		-2.808497		-23.822251		-8.377896		2.662675		-19.337813		-7.818307		64.749791		122.302394		-35.877690		-14.069087		6.129090		
0.787197		1.526090		10.952651		90.803107		0.010980		0.583043		0.467744		75.623335		0.501031		0.947625		-117.175938		10.777891		-3.317014		15.893101		74.082716		-3.863106		6.662294		-117.331349		11.960565		13.537177		28.665759		-54.349278		-0.377012		2.552218		15.856452		3.363346		-4.488807		4.719859		-37.221939		-11.394057		84.830775		105.045233		-3.263928		-23.856909		-8.250462		4.245951		-20.015809		-7.372292		65.447432		122.460408		-36.252170		-14.044617		5.748014		
